<svg xmlns="http://www.w3.org/2000/svg" viewBox="150 403.17 700 193.65"><defs/><path fill="#79c01d" transform="matrix(0.5427718523602851 0 0 0.5427718523602851 20.02659286661951 9.164459388625684)" d="M 445.76232025147 1060.20464970925 C 445.76232025147 1060.20464970925 445.96232025147 1059.90464970925 446.46232025147 1059.20464970925 L 445.76232025147 1060.20464970925 L 445.06232025147 1059.20464970925 C 398.56232025147 964.20464970925 295.96232025147 953.60464970925 243.86232025147 954.80464970925 L 239.46232025147 989.10464970925 C 342.56232025147 970.50464970925 404.96232025147 1016.90464970925 431.16232025147 1043.30464970925 C 426.46232025147 1047.40464970925 423.36232025147 1053.40464970925 423.36232025147 1060.20464970925 C 423.36232025147 1072.60464970925 433.46232025147 1082.70464970925 445.86232025147 1082.70464970925 C 458.26232025147 1082.70464970925 468.36232025147 1072.60464970925 468.36232025147 1060.20464970925 C 468.36232025147 1053.40464970925 465.26232025147 1047.30464970925 460.46232025147 1043.20464970925 C 486.76232025147 1016.70464970925 549.06232025147 970.50464970925 652.06232025147 989.10464970925 L 648.06232025147 958.50464970925 C 595.76232025147 955.90464970925 492.26232025147 964.00464970925 445.76232025147 1060.20464970925 Z"/><path fill="#1c75ac" transform="matrix(0.5427718523602851 0 0 0.5427718523602851 20.02659286661951 9.164459388625684)" d="M 445.76232025147 1025.70464970925 L 445.76232025147 1025.70464970925 L 445.76232025147 1025.70464970925 Z"/><path fill="#1c75ac" transform="matrix(0.5427718523602851 0 0 0.5427718523602851 20.02659286661951 9.164459388625684)" d="M 445.56232025147 1025.70464970925 L 445.56232025147 1025.70464970925 L 445.56232025147 1025.70464970925 Z"/><path fill="#1c75ac" transform="matrix(0.5427718523602851 0 0 0.5427718523602851 20.02659286661951 9.164459388625684)" d="M 618.76232025147 733.10464970925 C 618.76232025147 733.10464970925 547.66232025147 711.20464970925 481.56232025147 744.10464970925 C 502.26232025147 757.00464970925 516.26232025147 780.80464970925 516.26232025147 807.90464970925 C 516.26232025147 828.30464970925 507.46232025147 848.30464970925 489.26232025147 869.00464970925 C 488.46232025147 869.90464970925 481.56232025147 878.10464970925 473.46232025147 895.40464970925 L 418.06232025147 895.40464970925 C 409.96232025147 878.10464970925 403.06232025147 869.90464970925 402.26232025147 869.00464970925 C 384.06232025147 848.30464970925 375.26232025147 828.30464970925 375.26232025147 807.90464970925 C 375.26232025147 780.80464970925 389.16232025147 757.00464970925 409.96232025147 744.10464970925 C 343.86232025147 711.10464970925 272.76232025147 733.10464970925 272.76232025147 733.10464970925 L 246.76232025147 932.30464970925 C 246.76232025147 932.30464970925 368.96232025147 913.90464970925 445.46232025147 1025.60464970925 C 445.46232025147 1025.60464970925 445.56232025147 1025.80464970925 445.56232025147 1025.70464970925 C 445.56232025147 1025.70464970925 445.66232025147 1025.60464970925 445.66232025147 1025.60464970925 C 445.66232025147 1025.60464970925 445.76232025147 1025.80464970925 445.76232025147 1025.70464970925 C 445.76232025147 1025.70464970925 445.86232025147 1025.60464970925 445.86232025147 1025.60464970925 C 522.36232025147 913.90464970925 644.56232025147 932.30464970925 644.56232025147 932.30464970925 L 618.76232025147 733.10464970925 Z M 457.86232025147 941.90464970925 L 454.86232025147 941.90464970925 C 454.06232025147 944.70464970925 449.56232025147 948.80464970925 446.76232025147 948.80464970925 L 444.46232025147 948.80464970925 C 441.56232025147 948.80464970925 437.16232025147 944.70464970925 436.36232025147 941.90464970925 L 433.46232025147 941.90464970925 C 431.06232025147 941.90464970925 429.16232025147 939.90464970925 429.16232025147 937.40464970925 C 429.16232025147 934.90464970925 431.06232025147 932.90464970925 433.46232025147 932.90464970925 L 457.86232025147 932.90464970925 C 460.26232025147 932.90464970925 462.16232025147 934.90464970925 462.16232025147 937.40464970925 C 462.16232025147 939.90464970925 460.16232025147 941.90464970925 457.86232025147 941.90464970925 Z M 465.56232025147 926.70464970925 L 425.76232025147 926.70464970925 C 423.26232025147 926.70464970925 421.26232025147 924.60464970925 421.26232025147 921.90464970925 C 421.26232025147 919.30464970925 423.26232025147 917.10464970925 425.76232025147 917.10464970925 L 465.56232025147 917.10464970925 C 468.06232025147 917.10464970925 470.06232025147 919.20464970925 470.06232025147 921.90464970925 C 470.06232025147 924.50464970925 468.06232025147 926.70464970925 465.56232025147 926.70464970925 Z M 469.16232025147 911.00464970925 L 422.16232025147 911.00464970925 C 419.66232025147 911.00464970925 417.66232025147 908.90464970925 417.66232025147 906.20464970925 C 417.66232025147 903.60464970925 419.66232025147 901.40464970925 422.16232025147 901.40464970925 L 469.16232025147 901.40464970925 C 471.66232025147 901.40464970925 473.66232025147 903.50464970925 473.66232025147 906.20464970925 C 473.66232025147 908.90464970925 471.66232025147 911.00464970925 469.16232025147 911.00464970925 Z"/><path id="text" fill="#1c75ac" transform="matrix(0.7638052794901459 0 0 0.7638052794901459 288.5231698859856 42.373624967508164)" d="M 143.84067286742 574.24410458001 C 143.84067286742 569.63610458001 144.83267286742 565.70010458001 146.81667286742 562.43610458001 L 147.68067286742 562.43610458001 C 147.61667286742 562.94810458001 147.58467286742 563.46010458001 147.58467286742 563.97210458001 C 147.58467286742 568.38810458001 149.16867286742 572.24410458001 152.33667286742 575.54010458001 C 155.50467286742 578.83610458001 159.84067286742 580.48410458001 165.34467286742 580.48410458001 C 169.63267286742 580.48410458001 172.97667286742 579.46010458001 175.37667286742 577.41210458001 C 177.77667286742 575.36410458001 178.97667286742 572.77210458001 178.97667286742 569.63610458001 C 178.97667286742 567.78010458001 178.38467286742 566.11610458001 177.20067286742 564.64410458001 C 176.01667286742 563.17210458001 174.04867286742 561.54010458001 171.29667286742 559.74810458001 L 154.59267286742 548.70810458001 C 148.38467286742 544.54810458001 145.28067286742 539.42810458001 145.28067286742 533.34810458001 C 145.28067286742 532.70810458001 145.34467286742 532.06810458001 145.47267286742 531.42810458001 C 145.85667286742 526.37210458001 147.82467286742 522.30810458001 151.37667286742 519.23610458001 C 154.92867286742 516.16410458001 159.68067286742 514.62810458001 165.63267286742 514.62810458001 C 169.15267286742 514.62810458001 173.50467286742 514.94810458001 178.68867286742 515.58810458001 L 184.73667286742 515.58810458001 L 183.48867286742 529.70010458001 L 182.52867286742 529.70010458001 C 182.52867286742 526.37210458001 181.29667286742 523.70010458001 178.83267286742 521.68410458001 C 176.36867286742 519.66810458001 173.08867286742 518.66010458001 168.99267286742 518.66010458001 C 164.00067286742 518.66010458001 160.38467286742 520.19610458001 158.14467286742 523.26810458001 C 156.99267286742 524.74010458001 156.41667286742 526.21210458001 156.41667286742 527.68410458001 C 156.41667286742 529.15610458001 156.70467286742 530.40410458001 157.28067286742 531.42810458001 C 158.17667286742 533.09210458001 160.12867286742 534.88410458001 163.13667286742 536.80410458001 L 181.47267286742 548.70810458001 C 187.23267286742 552.48410458001 190.11267286742 557.41210458001 190.11267286742 563.49210458001 C 190.11267286742 570.27610458001 187.79267286742 575.47610458001 183.15267286742 579.09210458001 C 178.51267286742 582.70810458001 172.35267286742 584.51610458001 164.67267286742 584.51610458001 C 160.32067286742 584.51610458001 156.30467286742 583.98810458001 152.62467286742 582.93210458001 C 148.94467286742 581.87610458001 146.24067286742 580.45210458001 144.51267286742 578.66010458001 C 144.06467286742 577.44410458001 143.84067286742 575.97210458001 143.84067286742 574.24410458001 Z M 207.00867286742 576.40410458001 C 200.86467286742 571.12410458001 197.79267286742 563.78010458001 197.79267286742 554.37210458001 C 197.79267286742 544.96410458001 200.84867286742 537.60410458001 206.96067286742 532.29210458001 C 213.07267286742 526.98010458001 221.53667286742 524.32410458001 232.35267286742 524.32410458001 C 240.80067286742 524.32410458001 248.00067286742 525.79610458001 253.95267286742 528.74010458001 L 253.95267286742 544.00410458001 L 253.28067286742 544.00410458001 C 251.68067286742 538.30810458001 249.21667286742 534.24410458001 245.88867286742 531.81210458001 C 242.56067286742 529.38010458001 238.36867286742 528.16410458001 233.31267286742 528.16410458001 C 226.52867286742 528.16410458001 221.34467286742 530.48410458001 217.76067286742 535.12410458001 C 214.17667286742 539.76410458001 212.38467286742 546.10010458001 212.38467286742 554.13210458001 C 212.38467286742 562.16410458001 214.14467286742 568.54810458001 217.66467286742 573.28410458001 C 221.31267286742 578.14810458001 226.27267286742 580.58010458001 232.54467286742 580.58010458001 C 237.08867286742 580.58010458001 240.83267286742 579.87610458001 243.77667286742 578.46810458001 C 246.72067286742 577.06010458001 249.05667286742 574.80410458001 250.78467286742 571.70010458001 C 252.51267286742 568.59610458001 253.79267286742 564.38810458001 254.62467286742 559.07610458001 L 255.29667286742 559.07610458001 L 256.44867286742 573.57210458001 C 254.46467286742 576.83610458001 251.44067286742 579.46010458001 247.37667286742 581.44410458001 C 243.31267286742 583.42810458001 238.30467286742 584.42010458001 232.35267286742 584.42010458001 C 221.60067286742 584.35610458001 213.15267286742 581.68410458001 207.00867286742 576.40410458001 Z M 324.70467286742 582.21210458001 L 325.47267286742 582.21210458001 L 325.47267286742 583.17210458001 L 297.24867286742 583.17210458001 L 297.24867286742 582.21210458001 L 298.01667286742 582.21210458001 C 299.29667286742 582.21210458001 300.22467286742 581.82810458001 300.80067286742 581.06010458001 C 301.37667286742 580.29210458001 301.66467286742 579.58810458001 301.66467286742 578.94810458001 C 301.66467286742 578.30810458001 301.53667286742 577.63610458001 301.28067286742 576.93210458001 L 297.53667286742 568.10010458001 L 277.18467286742 568.10010458001 L 273.34467286742 577.02810458001 C 273.08867286742 577.66810458001 272.96067286742 578.32410458001 272.96067286742 578.99610458001 C 272.96067286742 579.66810458001 273.26467286742 580.37210458001 273.87267286742 581.10810458001 C 274.48067286742 581.84410458001 275.42467286742 582.21210458001 276.70467286742 582.21210458001 L 277.47267286742 582.21210458001 L 277.47267286742 583.17210458001 L 258.27267286742 583.17210458001 L 258.27267286742 582.21210458001 L 259.04067286742 582.21210458001 C 260.38467286742 582.21210458001 261.72867286742 581.79610458001 263.07267286742 580.96410458001 C 264.41667286742 580.13210458001 265.50467286742 578.88410458001 266.33667286742 577.22010458001 L 286.20867286742 534.59610458001 C 289.02467286742 528.26010458001 290.49667286742 524.35610458001 290.62467286742 522.88410458001 L 291.48867286742 522.88410458001 L 317.21667286742 576.83610458001 C 318.04867286742 578.69210458001 319.15267286742 580.05210458001 320.52867286742 580.91610458001 C 321.90467286742 581.78010458001 323.29667286742 582.21210458001 324.70467286742 582.21210458001 Z M 278.81667286742 564.35610458001 L 295.90467286742 564.35610458001 L 287.45667286742 544.29210458001 L 278.81667286742 564.35610458001 Z M 368.57667286742 525.57210458001 L 395.55267286742 525.57210458001 L 395.55267286742 526.53210458001 L 393.92067286742 526.53210458001 C 392.44867286742 526.53210458001 391.21667286742 526.98010458001 390.22467286742 527.87610458001 C 389.23267286742 528.77210458001 388.70467286742 529.92410458001 388.64067286742 531.33210458001 L 388.64067286742 573.28410458001 C 388.64067286742 577.25210458001 388.89667286742 580.51610458001 389.40867286742 583.07610458001 L 389.60067286742 584.42010458001 L 388.73667286742 584.42010458001 L 344.67267286742 545.54010458001 L 344.67267286742 577.31610458001 C 344.73667286742 578.72410458001 345.26467286742 579.89210458001 346.25667286742 580.82010458001 C 347.24867286742 581.74810458001 348.48067286742 582.21210458001 349.95267286742 582.21210458001 L 351.58467286742 582.21210458001 L 351.58467286742 583.17210458001 L 324.70467286742 583.17210458001 L 324.70467286742 582.21210458001 L 326.24067286742 582.21210458001 C 327.71267286742 582.21210458001 328.96067286742 581.74810458001 329.98467286742 580.82010458001 C 331.00867286742 579.89210458001 331.52067286742 578.72410458001 331.52067286742 577.31610458001 L 331.52067286742 535.07610458001 C 331.52067286742 531.23610458001 331.26467286742 528.06810458001 330.75267286742 525.57210458001 L 330.56067286742 524.22810458001 L 331.42467286742 524.32410458001 L 375.39267286742 563.01210458001 L 375.39267286742 531.42810458001 C 375.39267286742 530.02010458001 374.89667286742 528.85210458001 373.90467286742 527.92410458001 C 372.91267286742 526.99610458001 371.68067286742 526.53210458001 370.20867286742 526.53210458001 L 368.57667286742 526.53210458001 L 368.57667286742 525.57210458001 Z M 448.35267286742 539.87610458001 C 448.35267286742 542.24410458001 447.84067286742 544.32410458001 446.81667286742 546.11610458001 C 444.83267286742 549.57210458001 441.82467286742 551.46010458001 437.79267286742 551.78010458001 C 442.08067286742 552.10010458001 445.66467286742 553.62010458001 448.54467286742 556.34010458001 C 451.42467286742 559.06010458001 452.86467286742 562.53210458001 452.86467286742 566.75610458001 C 452.86467286742 575.01210458001 447.90467286742 580.19610458001 437.98467286742 582.30810458001 C 435.16867286742 582.88410458001 432.09667286742 583.17210458001 428.76867286742 583.17210458001 L 400.92867286742 583.17210458001 L 400.92867286742 582.21210458001 L 401.98467286742 582.21210458001 C 403.45667286742 582.21210458001 404.68867286742 581.73210458001 405.68067286742 580.77210458001 C 406.67267286742 579.81210458001 407.20067286742 578.59610458001 407.26467286742 577.12410458001 L 407.26467286742 531.62010458001 C 407.20067286742 529.31610458001 406.11267286742 527.74810458001 404.00067286742 526.91610458001 C 403.36067286742 526.66010458001 402.68867286742 526.53210458001 401.98467286742 526.53210458001 L 400.92867286742 526.53210458001 L 400.92867286742 525.57210458001 L 426.65667286742 525.57210458001 C 441.12067286742 525.57210458001 448.35267286742 530.34010458001 448.35267286742 539.87610458001 Z M 437.31267286742 565.89210458001 C 437.31267286742 562.94810458001 436.70467286742 560.48410458001 435.48867286742 558.50010458001 C 433.24867286742 554.66010458001 429.37667286742 552.74010458001 423.87267286742 552.74010458001 C 423.80867286742 552.74010458001 423.74467286742 552.74010458001 423.68067286742 552.74010458001 L 423.68067286742 551.87610458001 C 426.75267286742 551.87610458001 429.24867286742 550.98010458001 431.16867286742 549.18810458001 C 433.08867286742 547.39610458001 434.04867286742 544.61210458001 434.04867286742 540.83610458001 C 434.04867286742 533.15610458001 430.56067286742 529.31610458001 423.58467286742 529.31610458001 L 420.89667286742 529.31610458001 L 420.89667286742 579.33210458001 L 424.73667286742 579.33210458001 C 428.44867286742 579.33210458001 431.47267286742 578.24410458001 433.80867286742 576.06810458001 C 436.14467286742 573.89210458001 437.31267286742 570.50010458001 437.31267286742 565.89210458001 Z M 469.71267286742 532.43610458001 C 475.88867286742 527.02810458001 484.11267286742 524.32410458001 494.38467286742 524.32410458001 C 504.65667286742 524.32410458001 512.89667286742 527.02810458001 519.10467286742 532.43610458001 C 525.31267286742 537.84410458001 528.41667286742 545.15610458001 528.41667286742 554.37210458001 C 528.41667286742 563.58810458001 525.31267286742 570.90010458001 519.10467286742 576.30810458001 C 512.89667286742 581.71610458001 504.67267286742 584.42010458001 494.43267286742 584.42010458001 C 484.19267286742 584.42010458001 475.96867286742 581.71610458001 469.76067286742 576.30810458001 C 463.55267286742 570.90010458001 460.44867286742 563.58810458001 460.44867286742 554.37210458001 C 460.44867286742 545.15610458001 463.53667286742 537.84410458001 469.71267286742 532.43610458001 Z M 480.36867286742 573.52410458001 C 483.85667286742 578.22810458001 488.52867286742 580.58010458001 494.38467286742 580.58010458001 C 500.24067286742 580.58010458001 504.91267286742 578.22810458001 508.40067286742 573.52410458001 C 511.88867286742 568.82010458001 513.63267286742 562.43610458001 513.63267286742 554.37210458001 C 513.63267286742 546.30810458001 511.88867286742 539.92410458001 508.40067286742 535.22010458001 C 504.91267286742 530.51610458001 500.24067286742 528.16410458001 494.38467286742 528.16410458001 C 488.52867286742 528.16410458001 483.85667286742 530.51610458001 480.36867286742 535.22010458001 C 476.88067286742 539.92410458001 475.13667286742 546.30810458001 475.13667286742 554.37210458001 C 475.13667286742 562.43610458001 476.88067286742 568.82010458001 480.36867286742 573.52410458001 Z M 545.45667286742 532.43610458001 C 551.63267286742 527.02810458001 559.85667286742 524.32410458001 570.12867286742 524.32410458001 C 580.40067286742 524.32410458001 588.64067286742 527.02810458001 594.84867286742 532.43610458001 C 601.05667286742 537.84410458001 604.16067286742 545.15610458001 604.16067286742 554.37210458001 C 604.16067286742 563.58810458001 601.05667286742 570.90010458001 594.84867286742 576.30810458001 C 588.64067286742 581.71610458001 580.41667286742 584.42010458001 570.17667286742 584.42010458001 C 559.93667286742 584.42010458001 551.71267286742 581.71610458001 545.50467286742 576.30810458001 C 539.29667286742 570.90010458001 536.19267286742 563.58810458001 536.19267286742 554.37210458001 C 536.19267286742 545.15610458001 539.28067286742 537.84410458001 545.45667286742 532.43610458001 Z M 556.11267286742 573.52410458001 C 559.60067286742 578.22810458001 564.27267286742 580.58010458001 570.12867286742 580.58010458001 C 575.98467286742 580.58010458001 580.65667286742 578.22810458001 584.14467286742 573.52410458001 C 587.63267286742 568.82010458001 589.37667286742 562.43610458001 589.37667286742 554.37210458001 C 589.37667286742 546.30810458001 587.63267286742 539.92410458001 584.14467286742 535.22010458001 C 580.65667286742 530.51610458001 575.98467286742 528.16410458001 570.12867286742 528.16410458001 C 564.27267286742 528.16410458001 559.60067286742 530.51610458001 556.11267286742 535.22010458001 C 552.62467286742 539.92410458001 550.88067286742 546.30810458001 550.88067286742 554.37210458001 C 550.88067286742 562.43610458001 552.62467286742 568.82010458001 556.11267286742 573.52410458001 Z M 609.72867286742 583.17210458001 L 609.72867286742 582.21210458001 L 610.68867286742 582.21210458001 C 612.73667286742 582.21210458001 614.27267286742 581.38010458001 615.29667286742 579.71610458001 C 615.74467286742 578.94810458001 616.00067286742 578.08410458001 616.06467286742 577.12410458001 L 616.06467286742 531.62010458001 C 616.00067286742 529.63610458001 615.10467286742 528.16410458001 613.37667286742 527.20410458001 C 612.54467286742 526.75610458001 611.64867286742 526.53210458001 610.68867286742 526.53210458001 L 609.63267286742 526.53210458001 L 609.63267286742 525.57210458001 L 636.22467286742 525.57210458001 L 636.22467286742 526.53210458001 L 635.16867286742 526.53210458001 C 633.76067286742 526.53210458001 632.52867286742 527.01210458001 631.47267286742 527.97210458001 C 630.41667286742 528.93210458001 629.85667286742 530.11610458001 629.79267286742 531.52410458001 L 629.79267286742 577.12410458001 C 629.85667286742 578.53210458001 630.40067286742 579.73210458001 631.42467286742 580.72410458001 C 632.44867286742 581.71610458001 633.69667286742 582.21210458001 635.16867286742 582.21210458001 L 636.12867286742 582.21210458001 L 636.22467286742 583.17210458001 L 609.72867286742 583.17210458001 Z M 672.99267286742 583.17210458001 L 665.60067286742 583.17210458001 C 656.70467286742 583.17210458001 650.36867286742 580.70810458001 646.59267286742 575.78010458001 C 646.27267286742 575.26810458001 644.86467286742 573.31610458001 642.36867286742 569.92410458001 C 635.90467286742 560.90010458001 632.67267286742 556.35610458001 632.67267286742 556.29210458001 L 652.35267286742 530.18010458001 C 653.05667286742 529.28410458001 653.18467286742 528.43610458001 652.73667286742 527.63610458001 C 652.28867286742 526.83610458001 651.52067286742 526.43610458001 650.43267286742 526.43610458001 L 649.56867286742 526.43610458001 L 649.56867286742 525.57210458001 L 669.15267286742 525.57210458001 L 669.15267286742 526.43610458001 L 668.76867286742 526.43610458001 C 665.31267286742 526.43610458001 662.43267286742 527.58810458001 660.12867286742 529.89210458001 L 644.19267286742 548.70810458001 L 664.35267286742 576.74010458001 C 666.91267286742 580.38810458001 669.79267286742 582.24410458001 672.99267286742 582.30810458001 L 672.99267286742 583.17210458001 Z M 735.10467286742 526.53210458001 L 733.85667286742 526.53210458001 C 732.19267286742 526.53210458001 730.60867286742 526.98010458001 729.10467286742 527.87610458001 C 727.60067286742 528.77210458001 726.36867286742 529.89210458001 725.40867286742 531.23610458001 L 708.32067286742 557.54010458001 L 708.32067286742 577.12410458001 C 708.38467286742 578.53210458001 708.92867286742 579.73210458001 709.95267286742 580.72410458001 C 710.97667286742 581.71610458001 712.25667286742 582.21210458001 713.79267286742 582.21210458001 L 714.84867286742 582.21210458001 L 714.84867286742 583.17210458001 L 687.96867286742 583.17210458001 L 687.96867286742 582.21210458001 L 689.12067286742 582.21210458001 C 690.59267286742 582.21210458001 691.84067286742 581.71610458001 692.86467286742 580.72410458001 C 693.88867286742 579.73210458001 694.43267286742 578.53210458001 694.49667286742 577.12410458001 L 694.49667286742 557.54010458001 L 677.50467286742 531.23610458001 C 676.60867286742 529.82810458001 675.40867286742 528.69210458001 673.90467286742 527.82810458001 C 672.40067286742 526.96410458001 670.78467286742 526.53210458001 669.05667286742 526.53210458001 L 667.90467286742 526.53210458001 L 667.90467286742 525.57210458001 L 697.08867286742 525.57210458001 L 697.08867286742 526.53210458001 L 696.03267286742 526.53210458001 C 694.81667286742 526.53210458001 693.93667286742 526.93210458001 693.39267286742 527.73210458001 C 692.84867286742 528.53210458001 692.57667286742 529.20410458001 692.57667286742 529.74810458001 C 692.57667286742 530.29210458001 692.70467286742 530.78810458001 692.96067286742 531.23610458001 L 705.72867286742 553.31610458001 L 718.68867286742 531.23610458001 C 718.88067286742 530.78810458001 718.97667286742 530.29210458001 718.97667286742 529.74810458001 C 718.97667286742 529.20410458001 718.70467286742 528.53210458001 718.16067286742 527.73210458001 C 717.61667286742 526.93210458001 716.73667286742 526.53210458001 715.52067286742 526.53210458001 L 714.56067286742 526.53210458001 L 714.56067286742 525.57210458001 L 735.10467286742 525.57210458001 L 735.10467286742 526.53210458001 Z"/><path id="text" fill="#5c5d5b" transform="matrix(0.38190263974507294 0 0 0.38190263974507294 289.98967602260666 118.60750230286064)" d="M 303.61734573485 1165.38420916003 L 304.86534573485 1165.38420916003 L 304.86534573485 1166.34420916003 L 283.84134573485 1166.34420916003 L 283.84134573485 1165.38420916003 L 285.08934573485 1165.38420916003 C 286.75334573485 1165.38420916003 288.17734573485 1164.79220916003 289.36134573485 1163.60820916003 C 290.54534573485 1162.42420916003 291.16934573485 1161.00020916003 291.23334573485 1159.33620916003 L 291.23334573485 1106.05620916003 C 291.16934573485 1104.39220916003 290.54534573485 1102.98420916003 289.36134573485 1101.83220916003 C 288.17734573485 1100.68020916003 286.75334573485 1100.10420916003 285.08934573485 1100.10420916003 L 283.84134573485 1100.10420916003 L 283.84134573485 1099.14420916003 L 304.86534573485 1099.14420916003 L 304.86534573485 1100.10420916003 L 303.61734573485 1100.10420916003 C 301.95334573485 1100.10420916003 300.52934573485 1100.68020916003 299.34534573485 1101.83220916003 C 298.16134573485 1102.98420916003 297.53734573485 1104.39220916003 297.47334573485 1106.05620916003 L 297.47334573485 1159.33620916003 C 297.47334573485 1161.00020916003 298.08134573485 1162.42420916003 299.29734573485 1163.60820916003 C 300.51334573485 1164.79220916003 301.95334573485 1165.38420916003 303.61734573485 1165.38420916003 Z M 342.20934573485 1166.34420916003 L 338.08134573485 1166.34420916003 C 331.55334573485 1166.34420916003 326.75334573485 1164.52020916003 323.68134573485 1160.87220916003 L 300.54534573485 1132.93620916003 L 323.20134573485 1104.52020916003 C 323.71334573485 1103.88020916003 323.96934573485 1103.30420916003 323.96934573485 1102.79220916003 C 323.96934573485 1102.28020916003 323.87334573485 1101.83220916003 323.68134573485 1101.44820916003 C 323.16934573485 1100.48820916003 322.24134573485 1100.00820916003 320.89734573485 1100.00820916003 L 319.93734573485 1100.00820916003 L 319.93734573485 1099.14420916003 L 340.19334573485 1099.14420916003 L 340.19334573485 1100.00820916003 L 339.80934573485 1100.00820916003 C 335.58534573485 1100.00820916003 332.12934573485 1101.51220916003 329.44134573485 1104.52020916003 L 306.88134573485 1130.63220916003 L 333.08934573485 1161.44820916003 C 335.64934573485 1164.00820916003 338.68934573485 1165.32020916003 342.20934573485 1165.38420916003 L 342.20934573485 1166.34420916003 Z M 420.64134573485 1100.10420916003 C 419.04134573485 1100.10420916003 417.66534573485 1100.66420916003 416.51334573485 1101.78420916003 C 415.36134573485 1102.90420916003 414.75334573485 1104.26420916003 414.68934573485 1105.86420916003 L 414.68934573485 1155.40020916003 C 414.68934573485 1159.11220916003 414.91334573485 1162.63220916003 415.36134573485 1165.96020916003 L 415.55334573485 1167.68820916003 L 414.68934573485 1167.68820916003 L 362.36934573485 1111.81620916003 L 362.36934573485 1159.62420916003 C 362.43334573485 1161.86420916003 363.42534573485 1163.52820916003 365.34534573485 1164.61620916003 C 366.24134573485 1165.12820916003 367.20134573485 1165.38420916003 368.22534573485 1165.38420916003 L 370.04934573485 1165.38420916003 L 370.04934573485 1166.34420916003 L 350.27334573485 1166.34420916003 L 350.27334573485 1165.38420916003 L 352.09734573485 1165.38420916003 C 353.69734573485 1165.38420916003 355.07334573485 1164.82420916003 356.22534573485 1163.70420916003 C 357.37734573485 1162.58420916003 357.95334573485 1161.19220916003 357.95334573485 1159.52820916003 L 357.95334573485 1109.70420916003 C 357.95334573485 1105.80020916003 357.72934573485 1102.31220916003 357.28134573485 1099.24020916003 L 357.08934573485 1097.70420916003 L 358.04934573485 1097.70420916003 L 410.36934573485 1153.57620916003 L 410.36934573485 1105.96020916003 C 410.30534573485 1104.29620916003 409.69734573485 1102.90420916003 408.54534573485 1101.78420916003 C 407.39334573485 1100.66420916003 406.01734573485 1100.10420916003 404.41734573485 1100.10420916003 L 402.59334573485 1100.10420916003 L 402.59334573485 1099.14420916003 L 422.36934573485 1099.14420916003 L 422.36934573485 1100.10420916003 L 420.64134573485 1100.10420916003 Z M 470.75334573485 1097.80020916003 C 480.99334573485 1097.80020916003 489.31334573485 1101.01620916003 495.71334573485 1107.44820916003 C 502.11334573485 1113.88020916003 505.31334573485 1122.31220916003 505.31334573485 1132.74420916003 C 505.31334573485 1143.17620916003 502.11334573485 1151.60820916003 495.71334573485 1158.04020916003 C 489.31334573485 1164.47220916003 480.99334573485 1167.68820916003 470.75334573485 1167.68820916003 C 460.51334573485 1167.68820916003 452.20934573485 1164.47220916003 445.84134573485 1158.04020916003 C 439.47334573485 1151.60820916003 436.28934573485 1143.17620916003 436.28934573485 1132.74420916003 C 436.28934573485 1122.31220916003 439.47334573485 1113.88020916003 445.84134573485 1107.44820916003 C 452.20934573485 1101.01620916003 460.51334573485 1097.80020916003 470.75334573485 1097.80020916003 Z M 470.80134573485 1164.80820916003 C 478.96134573485 1164.80820916003 485.52134573485 1161.86420916003 490.48134573485 1155.97620916003 C 495.44134573485 1150.08820916003 497.92134573485 1142.34420916003 497.92134573485 1132.74420916003 C 497.92134573485 1126.40820916003 496.80134573485 1120.80820916003 494.56134573485 1115.94420916003 C 492.32134573485 1111.08020916003 489.13734573485 1107.32020916003 485.00934573485 1104.66420916003 C 480.88134573485 1102.00820916003 476.12934573485 1100.68020916003 470.75334573485 1100.68020916003 C 462.62534573485 1100.68020916003 456.08134573485 1103.62420916003 451.12134573485 1109.51220916003 C 446.16134573485 1115.40020916003 443.68134573485 1123.14420916003 443.68134573485 1132.74420916003 C 443.68134573485 1142.34420916003 446.16134573485 1150.08820916003 451.12134573485 1155.97620916003 C 456.08134573485 1161.86420916003 462.64134573485 1164.80820916003 470.80134573485 1164.80820916003 Z M 607.64934573485 1100.10420916003 L 606.88134573485 1100.10420916003 C 604.51334573485 1100.10420916003 602.43334573485 1100.96820916003 600.64134573485 1102.69620916003 C 599.61734573485 1103.59220916003 598.88134573485 1104.71220916003 598.43334573485 1106.05620916003 L 582.49734573485 1156.84020916003 C 581.21734573485 1160.87220916003 580.51334573485 1164.42420916003 580.38534573485 1167.49620916003 L 579.52134573485 1167.49620916003 L 559.93734573485 1112.58420916003 L 545.34534573485 1156.84020916003 C 544.12934573485 1160.80820916003 543.45734573485 1164.36020916003 543.32934573485 1167.49620916003 L 542.46534573485 1167.49620916003 L 520.67334573485 1105.96020916003 C 519.90534573485 1104.04020916003 518.72134573485 1102.58420916003 517.12134573485 1101.59220916003 C 515.52134573485 1100.60020916003 513.88934573485 1100.10420916003 512.22534573485 1100.10420916003 L 511.45734573485 1100.10420916003 L 511.45734573485 1099.14420916003 L 532.76934573485 1099.14420916003 L 532.76934573485 1100.10420916003 L 531.90534573485 1100.10420916003 C 530.56134573485 1100.10420916003 529.55334573485 1100.53620916003 528.88134573485 1101.40020916003 C 528.20934573485 1102.26420916003 527.87334573485 1103.08020916003 527.87334573485 1103.84820916003 C 527.87334573485 1104.61620916003 527.96934573485 1105.32020916003 528.16134573485 1105.96020916003 L 542.75334573485 1152.71220916003 L 560.60934573485 1097.60820916003 L 561.47334573485 1097.70420916003 L 580.38534573485 1150.79220916003 L 593.24934573485 1105.86420916003 C 593.44134573485 1105.16020916003 593.53734573485 1104.44020916003 593.53734573485 1103.70420916003 C 593.53734573485 1102.96820916003 593.21734573485 1102.18420916003 592.57734573485 1101.35220916003 C 591.93734573485 1100.52020916003 590.94534573485 1100.10420916003 589.60134573485 1100.10420916003 L 588.73734573485 1100.10420916003 L 588.73734573485 1099.14420916003 L 607.64934573485 1099.14420916003 L 607.64934573485 1100.10420916003 Z M 618.49734573485 1165.38420916003 C 620.16134573485 1165.38420916003 621.58534573485 1164.79220916003 622.76934573485 1163.60820916003 C 623.95334573485 1162.42420916003 624.57734573485 1161.00020916003 624.64134573485 1159.33620916003 L 624.64134573485 1106.15220916003 C 624.57734573485 1104.48820916003 623.95334573485 1103.06420916003 622.76934573485 1101.88020916003 C 621.58534573485 1100.69620916003 620.16134573485 1100.10420916003 618.49734573485 1100.10420916003 L 617.24934573485 1100.10420916003 L 617.24934573485 1099.14420916003 L 638.27334573485 1099.14420916003 L 638.27334573485 1100.10420916003 L 637.02534573485 1100.10420916003 C 634.72134573485 1100.10420916003 632.96134573485 1101.09620916003 631.74534573485 1103.08020916003 C 631.16934573485 1104.04020916003 630.88134573485 1105.06420916003 630.88134573485 1106.15220916003 L 630.88134573485 1163.36820916003 L 644.60934573485 1163.36820916003 C 649.34534573485 1163.36820916003 652.96134573485 1162.31220916003 655.45734573485 1160.20020916003 C 657.95334573485 1158.08820916003 660.03334573485 1154.95220916003 661.69734573485 1150.79220916003 L 662.65734573485 1150.79220916003 L 657.08934573485 1166.34420916003 L 617.24934573485 1166.34420916003 L 617.24934573485 1165.38420916003 L 618.49734573485 1165.38420916003 Z M 675.80934573485 1165.38420916003 C 677.47334573485 1165.38420916003 678.89734573485 1164.79220916003 680.08134573485 1163.60820916003 C 681.26534573485 1162.42420916003 681.88934573485 1161.00020916003 681.95334573485 1159.33620916003 L 681.95334573485 1105.57620916003 C 681.76134573485 1104.04020916003 681.08934573485 1102.74420916003 679.93734573485 1101.68820916003 C 678.78534573485 1100.63220916003 677.40934573485 1100.10420916003 675.80934573485 1100.10420916003 L 674.65734573485 1100.10420916003 L 674.56134573485 1099.14420916003 L 702.68934573485 1099.14420916003 C 704.67334573485 1099.14420916003 706.83334573485 1098.95220916003 709.16934573485 1098.56820916003 C 711.50534573485 1098.18420916003 713.15334573485 1097.80020916003 714.11334573485 1097.41620916003 L 714.11334573485 1109.51220916003 L 713.15334573485 1109.51220916003 L 713.15334573485 1107.78420916003 C 713.15334573485 1106.24820916003 712.62534573485 1104.93620916003 711.56934573485 1103.84820916003 C 710.51334573485 1102.76020916003 709.24934573485 1102.18420916003 707.77734573485 1102.12020916003 L 688.19334573485 1102.12020916003 L 688.19334573485 1131.78420916003 L 704.41734573485 1131.78420916003 C 705.69734573485 1131.72020916003 706.78534573485 1131.24020916003 707.68134573485 1130.34420916003 C 708.57734573485 1129.44820916003 709.02534573485 1128.32820916003 709.02534573485 1126.98420916003 L 709.02534573485 1125.64020916003 L 709.98534573485 1125.64020916003 L 709.98534573485 1140.80820916003 L 709.02534573485 1140.80820916003 L 709.02534573485 1139.36820916003 C 709.02534573485 1138.08820916003 708.59334573485 1137.00020916003 707.72934573485 1136.10420916003 C 706.86534573485 1135.20820916003 705.79334573485 1134.72820916003 704.51334573485 1134.66420916003 L 688.19334573485 1134.66420916003 L 688.19334573485 1163.36820916003 L 701.92134573485 1163.36820916003 C 706.65734573485 1163.36820916003 710.27334573485 1162.31220916003 712.76934573485 1160.20020916003 C 715.26534573485 1158.08820916003 717.34534573485 1154.95220916003 719.00934573485 1150.79220916003 L 719.96934573485 1150.79220916003 L 714.40134573485 1166.34420916003 L 674.56134573485 1166.34420916003 L 674.56134573485 1165.38420916003 L 675.80934573485 1165.38420916003 Z M 791.24934573485 1108.40820916003 C 797.61734573485 1114.58420916003 800.80134573485 1122.69620916003 800.80134573485 1132.74420916003 C 800.80134573485 1142.79220916003 797.61734573485 1150.90420916003 791.24934573485 1157.08020916003 C 784.88134573485 1163.25620916003 776.57734573485 1166.34420916003 766.33734573485 1166.34420916003 L 733.79334573485 1166.34420916003 L 733.79334573485 1165.38420916003 L 735.04134573485 1165.38420916003 C 736.70534573485 1165.38420916003 738.12934573485 1164.79220916003 739.31334573485 1163.60820916003 C 740.49734573485 1162.42420916003 741.12134573485 1161.00020916003 741.18534573485 1159.33620916003 L 741.18534573485 1105.57620916003 C 741.18534573485 1104.04020916003 740.56134573485 1102.74420916003 739.31334573485 1101.68820916003 C 738.06534573485 1100.63220916003 736.64134573485 1100.10420916003 735.04134573485 1100.10420916003 L 733.88934573485 1100.10420916003 L 733.79334573485 1099.14420916003 L 766.33734573485 1099.14420916003 C 776.57734573485 1099.14420916003 784.88134573485 1102.23220916003 791.24934573485 1108.40820916003 Z M 747.42534573485 1102.02420916003 L 747.42534573485 1163.46420916003 L 766.33734573485 1163.46420916003 C 771.71334573485 1163.46420916003 776.46534573485 1162.18420916003 780.59334573485 1159.62420916003 C 784.72134573485 1157.06420916003 787.92134573485 1153.46420916003 790.19334573485 1148.82420916003 C 792.46534573485 1144.18420916003 793.60134573485 1138.82420916003 793.60134573485 1132.74420916003 C 793.60134573485 1123.52820916003 791.08934573485 1116.10420916003 786.06534573485 1110.47220916003 C 781.04134573485 1104.84020916003 774.46534573485 1102.02420916003 766.33734573485 1102.02420916003 L 747.42534573485 1102.02420916003 Z M 825.61734573485 1157.99220916003 C 819.24934573485 1151.59220916003 816.06534573485 1143.17620916003 816.06534573485 1132.74420916003 C 816.06534573485 1122.31220916003 819.24934573485 1113.88020916003 825.61734573485 1107.44820916003 C 831.98534573485 1101.01620916003 840.28934573485 1097.80020916003 850.52934573485 1097.80020916003 C 859.36134573485 1097.80020916003 867.13734573485 1099.97620916003 873.85734573485 1104.32820916003 L 875.77734573485 1117.86420916003 L 874.91334573485 1117.86420916003 C 873.50534573485 1112.36020916003 870.67334573485 1108.12020916003 866.41734573485 1105.14420916003 C 862.16134573485 1102.16820916003 856.86534573485 1100.68020916003 850.52934573485 1100.68020916003 C 842.40134573485 1100.68020916003 835.82534573485 1103.62420916003 830.80134573485 1109.51220916003 C 825.77734573485 1115.40020916003 823.26534573485 1123.14420916003 823.26534573485 1132.74420916003 C 823.26534573485 1142.34420916003 825.77734573485 1150.07220916003 830.80134573485 1155.92820916003 C 835.82534573485 1161.78420916003 842.40134573485 1164.74420916003 850.52934573485 1164.80820916003 C 854.68934573485 1164.80820916003 858.64134573485 1164.07220916003 862.38534573485 1162.60020916003 C 866.12934573485 1161.12820916003 869.40934573485 1159.08020916003 872.22534573485 1156.45620916003 L 872.22534573485 1139.46420916003 C 872.22534573485 1138.05620916003 871.79334573485 1136.98420916003 870.92934573485 1136.24820916003 C 870.06534573485 1135.51220916003 868.86534573485 1135.14420916003 867.32934573485 1135.14420916003 L 865.79334573485 1135.14420916003 L 865.79334573485 1134.18420916003 L 884.60934573485 1134.18420916003 L 884.60934573485 1135.14420916003 L 883.16934573485 1135.14420916003 C 881.56934573485 1135.14420916003 880.35334573485 1135.51220916003 879.52134573485 1136.24820916003 C 878.68934573485 1136.98420916003 878.30534573485 1138.05620916003 878.36934573485 1139.46420916003 L 878.36934573485 1155.30420916003 C 876.70534573485 1157.48020916003 874.72134573485 1159.43220916003 872.41734573485 1161.16020916003 C 870.11334573485 1162.88820916003 867.02534573485 1164.40820916003 863.15334573485 1165.72020916003 C 859.28134573485 1167.03220916003 855.07334573485 1167.68820916003 850.52934573485 1167.68820916003 C 840.28934573485 1167.62420916003 831.98534573485 1164.39220916003 825.61734573485 1157.99220916003 Z M 896.32134573485 1165.38420916003 C 897.98534573485 1165.38420916003 899.40934573485 1164.79220916003 900.59334573485 1163.60820916003 C 901.77734573485 1162.42420916003 902.40134573485 1161.00020916003 902.46534573485 1159.33620916003 L 902.46534573485 1105.57620916003 C 902.27334573485 1104.04020916003 901.60134573485 1102.74420916003 900.44934573485 1101.68820916003 C 899.29734573485 1100.63220916003 897.92134573485 1100.10420916003 896.32134573485 1100.10420916003 L 895.16934573485 1100.10420916003 L 895.07334573485 1099.14420916003 L 923.20134573485 1099.14420916003 C 925.18534573485 1099.14420916003 927.34534573485 1098.95220916003 929.68134573485 1098.56820916003 C 932.01734573485 1098.18420916003 933.66534573485 1097.80020916003 934.62534573485 1097.41620916003 L 934.62534573485 1109.51220916003 L 933.66534573485 1109.51220916003 L 933.66534573485 1107.78420916003 C 933.66534573485 1106.24820916003 933.13734573485 1104.93620916003 932.08134573485 1103.84820916003 C 931.02534573485 1102.76020916003 929.76134573485 1102.18420916003 928.28934573485 1102.12020916003 L 908.70534573485 1102.12020916003 L 908.70534573485 1131.78420916003 L 924.92934573485 1131.78420916003 C 926.20934573485 1131.72020916003 927.29734573485 1131.24020916003 928.19334573485 1130.34420916003 C 929.08934573485 1129.44820916003 929.53734573485 1128.32820916003 929.53734573485 1126.98420916003 L 929.53734573485 1125.64020916003 L 930.49734573485 1125.64020916003 L 930.49734573485 1140.80820916003 L 929.53734573485 1140.80820916003 L 929.53734573485 1139.36820916003 C 929.53734573485 1138.08820916003 929.10534573485 1137.00020916003 928.24134573485 1136.10420916003 C 927.37734573485 1135.20820916003 926.30534573485 1134.72820916003 925.02534573485 1134.66420916003 L 908.70534573485 1134.66420916003 L 908.70534573485 1163.36820916003 L 922.43334573485 1163.36820916003 C 927.16934573485 1163.36820916003 930.78534573485 1162.31220916003 933.28134573485 1160.20020916003 C 935.77734573485 1158.08820916003 937.85734573485 1154.95220916003 939.52134573485 1150.79220916003 L 940.48134573485 1150.79220916003 L 934.91334573485 1166.34420916003 L 895.07334573485 1166.34420916003 L 895.07334573485 1165.38420916003 L 896.32134573485 1165.38420916003 Z M 985.31334573485 1165.38420916003 C 986.97734573485 1165.38420916003 988.40134573485 1164.79220916003 989.58534573485 1163.60820916003 C 990.76934573485 1162.42420916003 991.39334573485 1161.00020916003 991.45734573485 1159.33620916003 L 991.45734573485 1106.05620916003 C 991.39334573485 1104.39220916003 990.76934573485 1102.98420916003 989.58534573485 1101.83220916003 C 988.40134573485 1100.68020916003 986.97734573485 1100.10420916003 985.31334573485 1100.10420916003 L 984.06534573485 1100.10420916003 L 984.06534573485 1099.14420916003 L 1005.08934573485 1099.14420916003 L 1005.08934573485 1100.10420916003 L 1003.84134573485 1100.10420916003 C 1002.17734573485 1100.10420916003 1000.75334573485 1100.68020916003 999.56934573485 1101.83220916003 C 998.38534573485 1102.98420916003 997.76134573485 1104.39220916003 997.69734573485 1106.05620916003 L 997.69734573485 1159.33620916003 C 997.69734573485 1161.00020916003 998.30534573485 1162.42420916003 999.52134573485 1163.60820916003 C 1000.73734573485 1164.79220916003 1002.17734573485 1165.38420916003 1003.84134573485 1165.38420916003 L 1005.08934573485 1165.38420916003 L 1005.08934573485 1166.34420916003 L 984.06534573485 1166.34420916003 L 984.06534573485 1165.38420916003 L 985.31334573485 1165.38420916003 Z M 1021.40934573485 1162.40820916003 C 1021.21734573485 1161.51220916003 1021.12134573485 1159.78420916003 1021.12134573485 1157.22420916003 C 1021.12134573485 1154.66420916003 1021.60134573485 1151.94420916003 1022.56134573485 1149.06420916003 L 1023.42534573485 1149.06420916003 C 1023.36134573485 1149.76820916003 1023.32934573485 1150.47220916003 1023.32934573485 1151.17620916003 C 1023.32934573485 1155.08020916003 1024.51334573485 1158.32820916003 1026.88134573485 1160.92020916003 C 1029.24934573485 1163.51220916003 1032.38534573485 1164.80820916003 1036.28934573485 1164.80820916003 C 1040.32134573485 1164.80820916003 1043.63334573485 1163.59220916003 1046.22534573485 1161.16020916003 C 1048.81734573485 1158.72820916003 1050.11334573485 1155.67220916003 1050.11334573485 1151.99220916003 C 1050.11334573485 1148.31220916003 1048.86534573485 1145.32020916003 1046.36934573485 1143.01620916003 L 1027.93734573485 1125.92820916003 C 1024.48134573485 1122.72820916003 1022.75334573485 1118.85620916003 1022.75334573485 1114.31220916003 C 1022.75334573485 1109.76820916003 1024.27334573485 1105.88020916003 1027.31334573485 1102.64820916003 C 1030.35334573485 1099.41620916003 1034.46534573485 1097.80020916003 1039.64934573485 1097.80020916003 C 1042.08134573485 1097.80020916003 1044.83334573485 1098.12020916003 1047.90534573485 1098.76020916003 L 1051.64934573485 1098.76020916003 L 1051.64934573485 1110.56820916003 L 1050.78534573485 1110.56820916003 C 1050.78534573485 1107.56020916003 1049.74534573485 1105.16020916003 1047.66534573485 1103.36820916003 C 1045.58534573485 1101.57620916003 1042.91334573485 1100.68020916003 1039.64934573485 1100.68020916003 C 1036.38534573485 1100.68020916003 1033.64934573485 1101.76820916003 1031.44134573485 1103.94420916003 C 1029.23334573485 1106.12020916003 1028.12934573485 1108.84020916003 1028.12934573485 1112.10420916003 C 1028.12934573485 1115.36820916003 1029.40934573485 1118.18420916003 1031.96934573485 1120.55220916003 L 1050.88134573485 1138.02420916003 C 1054.08134573485 1140.96820916003 1055.68134573485 1145.00020916003 1055.68134573485 1150.12020916003 C 1055.68134573485 1155.24020916003 1054.04934573485 1159.44820916003 1050.78534573485 1162.74420916003 C 1047.52134573485 1166.04020916003 1043.16934573485 1167.68820916003 1037.72934573485 1167.68820916003 C 1034.91334573485 1167.68820916003 1031.92134573485 1167.25620916003 1028.75334573485 1166.39220916003 C 1025.58534573485 1165.52820916003 1023.13734573485 1164.20020916003 1021.40934573485 1162.40820916003 Z M 1145.34534573485 1117.67220916003 C 1145.34534573485 1120.48820916003 1144.76934573485 1123.11220916003 1143.61734573485 1125.54420916003 C 1141.50534573485 1130.08820916003 1137.79334573485 1133.25620916003 1132.48134573485 1135.04820916003 C 1130.62534573485 1135.68820916003 1129.02534573485 1136.00820916003 1127.68134573485 1136.00820916003 C 1123.71334573485 1136.00820916003 1120.28934573485 1135.27220916003 1117.40934573485 1133.80020916003 L 1117.40934573485 1132.84020916003 C 1122.08134573485 1133.86420916003 1126.40134573485 1133.35220916003 1130.36934573485 1131.30420916003 C 1133.88934573485 1129.51220916003 1136.28934573485 1126.56820916003 1137.56934573485 1122.47220916003 C 1137.95334573485 1121.19220916003 1138.14534573485 1119.97620916003 1138.14534573485 1118.82420916003 C 1138.14534573485 1117.67220916003 1138.14534573485 1116.96820916003 1138.14534573485 1116.71220916003 C 1138.01734573485 1112.23220916003 1136.83334573485 1108.66420916003 1134.59334573485 1106.00820916003 C 1132.35334573485 1103.35220916003 1129.21734573485 1102.02420916003 1125.18534573485 1102.02420916003 L 1114.14534573485 1102.02420916003 L 1114.14534573485 1159.33620916003 C 1114.20934573485 1161.00020916003 1114.83334573485 1162.42420916003 1116.01734573485 1163.60820916003 C 1117.20134573485 1164.79220916003 1118.62534573485 1165.38420916003 1120.28934573485 1165.38420916003 L 1121.53734573485 1165.38420916003 L 1121.53734573485 1166.34420916003 L 1100.51334573485 1166.34420916003 L 1100.51334573485 1165.38420916003 L 1101.76134573485 1165.38420916003 C 1103.42534573485 1165.38420916003 1104.84934573485 1164.79220916003 1106.03334573485 1163.60820916003 C 1107.21734573485 1162.42420916003 1107.84134573485 1161.00020916003 1107.90534573485 1159.33620916003 L 1107.90534573485 1105.67220916003 C 1107.71334573485 1104.07220916003 1107.04134573485 1102.74420916003 1105.88934573485 1101.68820916003 C 1104.73734573485 1100.63220916003 1103.36134573485 1100.10420916003 1101.76134573485 1100.10420916003 L 1100.60934573485 1100.10420916003 L 1100.51334573485 1099.14420916003 L 1125.56934573485 1099.14420916003 C 1131.71334573485 1099.14420916003 1136.54534573485 1100.79220916003 1140.06534573485 1104.08820916003 C 1143.58534573485 1107.38420916003 1145.34534573485 1111.91220916003 1145.34534573485 1117.67220916003 Z M 1196.60934573485 1097.80020916003 C 1206.84934573485 1097.80020916003 1215.16934573485 1101.01620916003 1221.56934573485 1107.44820916003 C 1227.96934573485 1113.88020916003 1231.16934573485 1122.31220916003 1231.16934573485 1132.74420916003 C 1231.16934573485 1143.17620916003 1227.96934573485 1151.60820916003 1221.56934573485 1158.04020916003 C 1215.16934573485 1164.47220916003 1206.84934573485 1167.68820916003 1196.60934573485 1167.68820916003 C 1186.36934573485 1167.68820916003 1178.06534573485 1164.47220916003 1171.69734573485 1158.04020916003 C 1165.32934573485 1151.60820916003 1162.14534573485 1143.17620916003 1162.14534573485 1132.74420916003 C 1162.14534573485 1122.31220916003 1165.32934573485 1113.88020916003 1171.69734573485 1107.44820916003 C 1178.06534573485 1101.01620916003 1186.36934573485 1097.80020916003 1196.60934573485 1097.80020916003 Z M 1196.65734573485 1164.80820916003 C 1204.81734573485 1164.80820916003 1211.37734573485 1161.86420916003 1216.33734573485 1155.97620916003 C 1221.29734573485 1150.08820916003 1223.77734573485 1142.34420916003 1223.77734573485 1132.74420916003 C 1223.77734573485 1126.40820916003 1222.65734573485 1120.80820916003 1220.41734573485 1115.94420916003 C 1218.17734573485 1111.08020916003 1214.99334573485 1107.32020916003 1210.86534573485 1104.66420916003 C 1206.73734573485 1102.00820916003 1201.98534573485 1100.68020916003 1196.60934573485 1100.68020916003 C 1188.48134573485 1100.68020916003 1181.93734573485 1103.62420916003 1176.97734573485 1109.51220916003 C 1172.01734573485 1115.40020916003 1169.53734573485 1123.14420916003 1169.53734573485 1132.74420916003 C 1169.53734573485 1142.34420916003 1172.01734573485 1150.08820916003 1176.97734573485 1155.97620916003 C 1181.93734573485 1161.86420916003 1188.49734573485 1164.80820916003 1196.65734573485 1164.80820916003 Z M 1333.50534573485 1100.10420916003 L 1332.73734573485 1100.10420916003 C 1330.36934573485 1100.10420916003 1328.28934573485 1100.96820916003 1326.49734573485 1102.69620916003 C 1325.47334573485 1103.59220916003 1324.73734573485 1104.71220916003 1324.28934573485 1106.05620916003 L 1308.35334573485 1156.84020916003 C 1307.07334573485 1160.87220916003 1306.36934573485 1164.42420916003 1306.24134573485 1167.49620916003 L 1305.37734573485 1167.49620916003 L 1285.79334573485 1112.58420916003 L 1271.20134573485 1156.84020916003 C 1269.98534573485 1160.80820916003 1269.31334573485 1164.36020916003 1269.18534573485 1167.49620916003 L 1268.32134573485 1167.49620916003 L 1246.52934573485 1105.96020916003 C 1245.76134573485 1104.04020916003 1244.57734573485 1102.58420916003 1242.97734573485 1101.59220916003 C 1241.37734573485 1100.60020916003 1239.74534573485 1100.10420916003 1238.08134573485 1100.10420916003 L 1237.31334573485 1100.10420916003 L 1237.31334573485 1099.14420916003 L 1258.62534573485 1099.14420916003 L 1258.62534573485 1100.10420916003 L 1257.76134573485 1100.10420916003 C 1256.41734573485 1100.10420916003 1255.40934573485 1100.53620916003 1254.73734573485 1101.40020916003 C 1254.06534573485 1102.26420916003 1253.72934573485 1103.08020916003 1253.72934573485 1103.84820916003 C 1253.72934573485 1104.61620916003 1253.82534573485 1105.32020916003 1254.01734573485 1105.96020916003 L 1268.60934573485 1152.71220916003 L 1286.46534573485 1097.60820916003 L 1287.32934573485 1097.70420916003 L 1306.24134573485 1150.79220916003 L 1319.10534573485 1105.86420916003 C 1319.29734573485 1105.16020916003 1319.39334573485 1104.44020916003 1319.39334573485 1103.70420916003 C 1319.39334573485 1102.96820916003 1319.07334573485 1102.18420916003 1318.43334573485 1101.35220916003 C 1317.79334573485 1100.52020916003 1316.80134573485 1100.10420916003 1315.45734573485 1100.10420916003 L 1314.59334573485 1100.10420916003 L 1314.59334573485 1099.14420916003 L 1333.50534573485 1099.14420916003 L 1333.50534573485 1100.10420916003 Z M 1344.35334573485 1165.38420916003 C 1346.01734573485 1165.38420916003 1347.44134573485 1164.79220916003 1348.62534573485 1163.60820916003 C 1349.80934573485 1162.42420916003 1350.43334573485 1161.00020916003 1350.49734573485 1159.33620916003 L 1350.49734573485 1105.57620916003 C 1350.30534573485 1104.04020916003 1349.63334573485 1102.74420916003 1348.48134573485 1101.68820916003 C 1347.32934573485 1100.63220916003 1345.95334573485 1100.10420916003 1344.35334573485 1100.10420916003 L 1343.20134573485 1100.10420916003 L 1343.10534573485 1099.14420916003 L 1371.23334573485 1099.14420916003 C 1373.21734573485 1099.14420916003 1375.37734573485 1098.95220916003 1377.71334573485 1098.56820916003 C 1380.04934573485 1098.18420916003 1381.69734573485 1097.80020916003 1382.65734573485 1097.41620916003 L 1382.65734573485 1109.51220916003 L 1381.69734573485 1109.51220916003 L 1381.69734573485 1107.78420916003 C 1381.69734573485 1106.24820916003 1381.16934573485 1104.93620916003 1380.11334573485 1103.84820916003 C 1379.05734573485 1102.76020916003 1377.79334573485 1102.18420916003 1376.32134573485 1102.12020916003 L 1356.73734573485 1102.12020916003 L 1356.73734573485 1131.78420916003 L 1372.96134573485 1131.78420916003 C 1374.24134573485 1131.72020916003 1375.32934573485 1131.24020916003 1376.22534573485 1130.34420916003 C 1377.12134573485 1129.44820916003 1377.56934573485 1128.32820916003 1377.56934573485 1126.98420916003 L 1377.56934573485 1125.64020916003 L 1378.52934573485 1125.64020916003 L 1378.52934573485 1140.80820916003 L 1377.56934573485 1140.80820916003 L 1377.56934573485 1139.36820916003 C 1377.56934573485 1138.08820916003 1377.13734573485 1137.00020916003 1376.27334573485 1136.10420916003 C 1375.40934573485 1135.20820916003 1374.33734573485 1134.72820916003 1373.05734573485 1134.66420916003 L 1356.73734573485 1134.66420916003 L 1356.73734573485 1163.36820916003 L 1370.46534573485 1163.36820916003 C 1375.20134573485 1163.36820916003 1378.81734573485 1162.31220916003 1381.31334573485 1160.20020916003 C 1383.80934573485 1158.08820916003 1385.88934573485 1154.95220916003 1387.55334573485 1150.79220916003 L 1388.51334573485 1150.79220916003 L 1382.94534573485 1166.34420916003 L 1343.10534573485 1166.34420916003 L 1343.10534573485 1165.38420916003 L 1344.35334573485 1165.38420916003 Z M 1422.11334573485 1102.12020916003 L 1415.96934573485 1102.12020916003 L 1415.96934573485 1159.33620916003 C 1415.96934573485 1161.00020916003 1416.56134573485 1162.42420916003 1417.74534573485 1163.60820916003 C 1418.92934573485 1164.79220916003 1420.38534573485 1165.38420916003 1422.11334573485 1165.38420916003 L 1423.26534573485 1165.38420916003 L 1423.36134573485 1166.34420916003 L 1402.33734573485 1166.34420916003 L 1402.33734573485 1165.38420916003 L 1403.58534573485 1165.38420916003 C 1405.24934573485 1165.38420916003 1406.67334573485 1164.80820916003 1407.85734573485 1163.65620916003 C 1409.04134573485 1162.50420916003 1409.66534573485 1161.09620916003 1409.72934573485 1159.43220916003 L 1409.72934573485 1106.15220916003 C 1409.66534573485 1104.48820916003 1409.04134573485 1103.06420916003 1407.85734573485 1101.88020916003 C 1406.67334573485 1100.69620916003 1405.24934573485 1100.10420916003 1403.58534573485 1100.10420916003 L 1402.33734573485 1100.10420916003 L 1402.33734573485 1099.14420916003 L 1428.25734573485 1099.14420916003 C 1434.08134573485 1099.14420916003 1438.65734573485 1100.76020916003 1441.98534573485 1103.99220916003 C 1445.31334573485 1107.22420916003 1446.97734573485 1111.41620916003 1446.97734573485 1116.56820916003 C 1446.97734573485 1121.72020916003 1445.39334573485 1126.16820916003 1442.22534573485 1129.91220916003 C 1439.05734573485 1133.65620916003 1435.20134573485 1135.52820916003 1430.65734573485 1135.52820916003 C 1431.61734573485 1135.97620916003 1432.75334573485 1136.85620916003 1434.06534573485 1138.16820916003 C 1435.37734573485 1139.48020916003 1436.54534573485 1140.84020916003 1437.56934573485 1142.24820916003 C 1443.07334573485 1150.12020916003 1446.65734573485 1154.96820916003 1448.32134573485 1156.79220916003 C 1449.98534573485 1158.61620916003 1451.16934573485 1159.86420916003 1451.87334573485 1160.53620916003 C 1452.57734573485 1161.20820916003 1453.34534573485 1161.86420916003 1454.17734573485 1162.50420916003 C 1455.00934573485 1163.14420916003 1455.84134573485 1163.65620916003 1456.67334573485 1164.04020916003 C 1458.52934573485 1164.93620916003 1460.51334573485 1165.38420916003 1462.62534573485 1165.38420916003 L 1462.62534573485 1166.34420916003 L 1457.34534573485 1166.34420916003 C 1454.59334573485 1166.34420916003 1452.03334573485 1165.84820916003 1449.66534573485 1164.85620916003 C 1447.29734573485 1163.86420916003 1445.52134573485 1162.84020916003 1444.33734573485 1161.78420916003 C 1443.15334573485 1160.72820916003 1442.12934573485 1159.70420916003 1441.26534573485 1158.71220916003 C 1440.40134573485 1157.72020916003 1438.01734573485 1154.40820916003 1434.11334573485 1148.77620916003 C 1430.20934573485 1143.14420916003 1427.93734573485 1139.92820916003 1427.29734573485 1139.12820916003 C 1426.65734573485 1138.32820916003 1425.98534573485 1137.54420916003 1425.28134573485 1136.77620916003 C 1423.23334573485 1134.60020916003 1421.18534573485 1133.51220916003 1419.13734573485 1133.51220916003 L 1419.13734573485 1132.55220916003 C 1419.64934573485 1132.61620916003 1420.32134573485 1132.64820916003 1421.15334573485 1132.64820916003 C 1421.98534573485 1132.64820916003 1423.00934573485 1132.61620916003 1424.22534573485 1132.55220916003 C 1432.16134573485 1132.36020916003 1437.15334573485 1129.03220916003 1439.20134573485 1122.56820916003 C 1439.58534573485 1121.28820916003 1439.77734573485 1120.08820916003 1439.77734573485 1118.96820916003 C 1439.77734573485 1117.84820916003 1439.77734573485 1117.12820916003 1439.77734573485 1116.80820916003 C 1439.64934573485 1112.52020916003 1438.52934573485 1109.06420916003 1436.41734573485 1106.44020916003 C 1434.30534573485 1103.81620916003 1431.45734573485 1102.40820916003 1427.87334573485 1102.21620916003 C 1426.33734573485 1102.15220916003 1424.41734573485 1102.12020916003 1422.11334573485 1102.12020916003 Z"/></svg>